<svg width="32" height="32" viewBox="0 0 32 32" fill="none" xmlns="http://www.w3.org/2000/svg">
  <!-- Background gradient -->
  <rect width="32" height="32" rx="6" fill="url(#paint0_linear)" />

  <!-- CB text as path instead of text element for better compatibility -->
  <path d="M11.0625 20.4688C10.0312 20.4688 9.21875 20.1562 8.625 19.5312C8.03125 18.9062 7.73438 18.0625 7.73438 17C7.73438 15.9375 8.03125 15.0938 8.625 14.4688C9.21875 13.8438 10.0312 13.5312 11.0625 13.5312C11.7188 13.5312 12.2812 13.6875 12.75 14C13.2188 14.3125 13.5625 14.7188 13.7812 15.2188L12.5938 15.8125C12.4688 15.5 12.2812 15.25 12.0312 15.0625C11.7812 14.875 11.4688 14.7812 11.0938 14.7812C10.5 14.7812 10.0312 14.9688 9.6875 15.3438C9.34375 15.7188 9.17188 16.2812 9.17188 17C9.17188 17.7188 9.34375 18.2812 9.6875 18.6562C10.0312 19.0312 10.5 19.2188 11.0938 19.2188C11.4688 19.2188 11.7812 19.125 12.0312 18.9375C12.2812 18.75 12.4688 18.5 12.5938 18.1875L13.7812 18.7812C13.5625 19.2812 13.2188 19.6875 12.75 20C12.2812 20.3125 11.7188 20.4688 11.0625 20.4688Z" fill="white"/>
  <path d="M19.7812 20.4688C18.75 20.4688 17.9375 20.1562 17.3438 19.5312C16.75 18.9062 16.4531 18.0625 16.4531 17C16.4531 15.9375 16.75 15.0938 17.3438 14.4688C17.9375 13.8438 18.75 13.5312 19.7812 13.5312C20.8125 13.5312 21.625 13.8438 22.2188 14.4688C22.8125 15.0938 23.1094 15.9375 23.1094 17C23.1094 18.0625 22.8125 18.9062 22.2188 19.5312C21.625 20.1562 20.8125 20.4688 19.7812 20.4688ZM19.7812 19.2188C20.375 19.2188 20.8438 19.0312 21.1875 18.6562C21.5312 18.2812 21.7031 17.7188 21.7031 17C21.7031 16.2812 21.5312 15.7188 21.1875 15.3438C20.8438 14.9688 20.375 14.7812 19.7812 14.7812C19.1875 14.7812 18.7188 14.9688 18.375 15.3438C18.0312 15.7188 17.8594 16.2812 17.8594 17C17.8594 17.7188 18.0312 18.2812 18.375 18.6562C18.7188 19.0312 19.1875 19.2188 19.7812 19.2188Z" fill="white"/>

  <!-- Bottom right accent -->
  <rect x="22" y="22" width="6" height="6" rx="2" fill="white" fill-opacity="0.3" />

  <!-- Overlay -->
  <rect width="32" height="32" rx="6" fill="white" fill-opacity="0.1" style="mix-blend-mode: overlay" />

  <!-- Gradient definition -->
  <defs>
    <linearGradient id="paint0_linear" x1="0" y1="0" x2="32" y2="32" gradientUnits="userSpaceOnUse">
      <stop offset="0" stop-color="#3B82F6" /> <!-- blue-500 -->
      <stop offset="1" stop-color="#34D399" /> <!-- green-400 -->
    </linearGradient>
  </defs>
</svg>
